HIERARCHY
ROOT hip
{
	OFFSET 0.000000 0.000000 0.000000 
	CHANNELS 6 Xposition Yposition Zposition Xrotation Zrotation Yrotation
	JOINT abdomen
	{
		OFFSET 0.000000 3.402643 0.000000 
		CHANNELS 3 Xrotation Zrotation Yrotation
		JOINT chest
		{
			OFFSET 0.000000 8.438565 -0.680529 
			CHANNELS 3 Xrotation Zrotation Yrotation
			JOINT neck
			{
				OFFSET 0.000000 10.207942 -0.272212 
				CHANNELS 3 Xrotation Zrotation Yrotation
				JOINT head
				{
					OFFSET 0.000000 3.130431 0.000000 
					CHANNELS 3 Xrotation Zrotation Yrotation
					End Site
					{
						OFFSET 0.000000 3.130435 0.000000 
					}
				}
			}
			JOINT lCollar
			{
				OFFSET 3.470700 6.669187 -0.816635 
				CHANNELS 3 Yrotation Zrotation Xrotation
				JOINT lShldr
				{
					OFFSET 3.198488 0.000000 0.000000 
					CHANNELS 3 Zrotation Yrotation Xrotation
					JOINT lForeArm
					{
						OFFSET 10.139888 0.000000 0.000000 
						CHANNELS 3 Yrotation Zrotation Xrotation
						JOINT lHand
						{
							OFFSET 8.370511 0.000000 0.000000 
							CHANNELS 3 Zrotation Yrotation Xrotation
							End Site
							{
								OFFSET 4.083176 0.000000 0.000000 
							}
						}
					}
				}
			}
			JOINT rCollar
			{
				OFFSET -3.470700 6.669187 -0.816635 
				CHANNELS 3 Yrotation Zrotation Xrotation
				JOINT rShldr
				{
					OFFSET -3.198488 0.000000 0.000000 
					CHANNELS 3 Zrotation Yrotation Xrotation
					JOINT rForeArm
					{
						OFFSET -10.139888 0.000000 0.000000 
						CHANNELS 3 Yrotation Zrotation Xrotation
						JOINT rHand
						{
							OFFSET -8.370511 0.000000 0.000000 
							CHANNELS 3 Zrotation Yrotation Xrotation
							End Site
							{
								OFFSET -4.083176 0.000000 0.000000 
							}
						}
					}
				}
			}
		}
	}
	JOINT lThigh
	{
		OFFSET 5.308129 -1.633274 1.361059 
		CHANNELS 3 Xrotation Zrotation Yrotation
		JOINT lShin
		{
			OFFSET -2.041588 -20.007561 0.000000 
			CHANNELS 3 Xrotation Zrotation Yrotation
			JOINT lFoot
			{
				OFFSET 0.000000 -19.190928 -1.224953 
				CHANNELS 3 Xrotation Yrotation Zrotation
				End Site
				{
					OFFSET 0.000000 -2.449906 4.627600 
				}
			}
		}
	}
	JOINT rThigh
	{
		OFFSET -5.308129 -1.633274 1.361059 
		CHANNELS 3 Xrotation Zrotation Yrotation
		JOINT rShin
		{
			OFFSET 2.041588 -20.007561 0.000000 
			CHANNELS 3 Xrotation Zrotation Yrotation
			JOINT rFoot
			{
				OFFSET 0.000000 -19.190928 -1.224953 
				CHANNELS 3 Xrotation Yrotation Zrotation
				End Site
				{
					OFFSET 0.000000 -2.449906 4.627600 
				}
			}
		}
	}
}
MOTION
Frames: 20
Frame Time: 0.016667
-2.223993 43.200306 -7.599122 -8.898745 3.994463 -10.956769 0.000000 0.000000 0.000000 4.904459 -6.480296 -4.227602 13.722411 -3.918002 0.067608 -5.427065 3.829803 0.136611 4.423745 -25.000000 0.504875 -57.748039 3.257295 -4.165347 -18.487272 -3.865857 17.083635 -12.574914 7.197684 7.870578 9.648845 20.573723 -1.085396 60.372467 -3.594635 -0.547716 4.395396 -2.404662 17.535595 9.428081 6.849944 8.508064 12.332030 -1.464837 -2.428157 -2.456236 -0.780913 8.921686 -1.654089 5.078672 -0.214959 -2.607817 -22.536261 -3.916982 18.987619 0.876513 -3.458674 -8.088721 9.183486 13.307261 
-2.224498 43.200466 -7.604090 -8.898745 3.994463 -10.956769 0.000000 0.000000 0.000000 4.904459 -6.480296 -4.237368 13.742143 -3.929034 0.073610 -5.436853 3.829865 0.135958 4.428998 -25.000000 0.518973 -57.748817 3.277294 -4.174079 -18.506821 -3.866103 17.081318 -12.590402 7.213246 7.905375 9.648845 20.573723 -1.085396 60.372467 -3.584885 -0.548258 4.406133 -2.403474 17.554985 9.426063 6.853781 8.489017 12.332817 -1.464918 -2.418357 -2.462689 -0.760986 8.921290 -1.641044 5.089905 -0.231800 -2.617648 -22.535803 -3.905762 18.997704 0.869968 -3.459188 -8.087344 9.173669 13.302619 
-2.226071 43.200912 -7.618797 -8.898745 3.994463 -10.956769 0.000000 0.000000 0.000000 4.904364 -6.470566 -4.265833 13.781608 -3.951092 0.085594 -5.436916 3.820145 0.144785 4.439919 -25.000000 0.543162 -57.751163 3.317783 -4.201266 -18.487850 -3.962888 17.118357 -12.510374 7.208084 8.057376 9.653695 20.575432 -1.072466 60.362686 -3.584908 -0.548014 4.409575 -2.400718 17.623203 9.388852 6.830901 8.475664 12.303361 -1.465033 -2.415804 -2.465187 -0.751627 8.930815 -1.620596 5.073784 -0.229368 -2.626612 -22.522673 -3.937199 18.997562 0.865153 -3.450152 -8.086727 9.184716 13.307882 
-2.226591 43.201054 -7.623562 -8.898745 3.994463 -10.956769 0.000000 0.000000 0.000000 4.904364 -6.470566 -4.265833 13.801341 -3.962118 0.091577 -5.446703 3.820208 0.144135 4.435181 -25.000000 0.556869 -57.751945 3.328028 -4.210494 -18.487633 -3.991685 17.120975 -12.483797 7.210724 8.097556 9.663685 20.585136 -1.073151 60.352909 -3.584931 -0.547770 4.411050 -2.399536 17.652437 9.389862 6.828982 8.485186 12.304987 -1.445818 -2.422760 -2.472203 -0.760558 8.941262 -1.617138 5.068696 -0.241722 -2.636437 -22.522213 -3.925978 19.007420 0.855385 -3.441408 -8.090107 9.182736 13.306760 
-2.228130 43.201469 -7.637399 -8.898745 3.994463 -10.956769 0.000000 0.000000 0.000000 4.904269 -6.460837 -4.284534 13.840648 -3.974681 0.105855 -5.476065 3.820395 0.142183 4.445694 -25.000000 0.580402 -57.744545 3.310009 -4.240966 -18.449074 -4.030265 17.145452 -12.461302 7.221017 8.174604 9.663685 20.585136 -1.073151 60.333355 -3.575226 -0.547824 4.423750 -2.396768 17.710814 9.380401 6.819962 8.473689 12.276502 -1.444598 -2.410163 -2.472519 -0.760924 8.931511 -1.585703 5.072639 -0.251849 -2.656022 -22.520548 -3.913409 19.017780 0.858653 -3.459938 -8.094244 9.190954 13.310475 
-2.228658 43.201572 -7.640368 -8.898745 3.994463 -10.956769 0.000000 0.000000 0.000000 4.904269 -6.460837 -4.284534 13.840648 -3.974681 0.105855 -5.476126 3.810674 0.151017 4.440543 -25.000000 0.588759 -57.735561 3.300758 -4.250936 -18.438826 -4.049091 17.141905 -12.444033 7.227768 8.193670 9.650402 20.596313 -1.066887 60.333355 -3.575226 -0.547824 4.433994 -2.395972 17.720867 9.391243 6.811946 8.471594 12.276502 -1.444600 -2.410163 -2.472519 -0.760924 8.931511 -1.576230 5.062549 -0.245780 -2.656022 -22.520550 -3.913409 19.027554 0.858667 -3.459475 -8.090466 9.182501 13.306656 
-2.230265 43.201874 -7.648550 -8.898745 3.994463 -10.956769 0.000000 0.000000 0.000000 4.904269 -6.460837 -4.284534 13.879965 -3.981671 0.091359 -5.525124 3.801263 0.195676 4.420656 -25.000000 0.610419 -57.737926 3.292478 -4.280592 -18.448601 -4.049207 17.140717 -12.439260 7.212638 8.168396 9.627741 20.607412 -1.058028 60.313793 -3.565521 -0.547878 4.454482 -2.394380 17.740158 9.393633 6.792991 8.467527 12.276502 -1.444600 -2.410163 -2.505592 -0.751759 8.942432 -1.554935 5.053460 -0.260650 -2.656022 -22.520548 -3.913410 19.027554 0.858665 -3.459475 -8.090465 9.182502 13.306658 
-2.230794 43.201973 -7.651244 -8.898745 3.994463 -10.956769 0.000000 0.000000 0.000000 4.914192 -6.470472 -4.286465 13.899540 -3.981352 0.090071 -5.554484 3.801447 0.203499 4.421068 -25.000000 0.611080 -57.728146 3.302243 -4.279855 -18.458378 -4.049324 17.139528 -12.421076 7.185752 8.126146 9.618979 20.616961 -1.060401 60.304012 -3.555793 -0.548175 4.464725 -2.393584 17.749804 9.394829 6.783514 8.466647 12.276502 -1.444598 -2.410163 -2.505591 -0.751757 8.942432 -1.545297 5.053026 -0.250752 -2.656022 -22.520548 -3.913409 19.027554 0.858665 -3.459475 -8.090466 9.182501 13.306656 
-2.232350 43.202251 -7.659171 -8.898745 3.994463 -10.956769 0.000000 0.000000 0.000000 4.924115 -6.480107 -4.298165 13.889755 -3.979656 0.081128 -5.554484 3.801447 0.213265 4.431169 -25.000000 0.633951 -57.708595 3.292513 -4.279859 -18.475687 -4.038137 17.091480 -12.395280 7.164156 8.101727 9.610830 20.636137 -1.067739 60.294991 -3.556356 -0.557653 4.494564 -2.381833 17.769024 9.398418 6.755082 8.460541 12.276502 -1.444598 -2.410163 -2.531688 -0.731825 8.952693 -1.521746 5.044549 -0.266133 -2.656022 -22.520550 -3.913409 19.027554 0.858665 -3.459476 -8.090466 9.182501 13.306656 
-2.232846 43.202343 -7.661700 -8.898745 3.994463 -10.956769 0.000000 0.000000 0.000000 4.934038 -6.489741 -4.300104 13.879806 -3.968478 0.074523 -5.554484 3.801447 0.232796 4.436322 -25.000000 0.625597 -57.707809 3.282269 -4.270629 -18.503242 -4.008132 17.046326 -12.417320 7.172535 8.109166 9.620495 20.642519 -1.090006 60.295742 -3.556897 -0.567374 4.504316 -2.381433 17.768921 9.395569 6.753274 8.420416 12.276502 -1.444598 -2.410163 -2.531688 -0.731822 8.952693 -1.513050 5.047225 -0.265553 -2.656022 -22.520548 -3.913409 19.027554 0.858665 -3.459475 -8.090465 9.182502 13.306657 
-2.234277 43.202599 -7.668984 -8.898745 3.994463 -10.956769 0.000000 0.000000 0.000000 4.943962 -6.499375 -4.302044 13.869862 -3.955444 0.058327 -5.554545 3.791725 0.270940 4.456733 -25.000000 0.627076 -57.689056 3.273030 -4.280355 -18.532782 -3.979690 17.040176 -12.437407 7.145378 8.045757 9.626251 20.660147 -1.101711 60.297253 -3.557979 -0.586817 4.525293 -2.379445 17.797953 9.413207 6.744908 8.376989 12.276502 -1.444600 -2.410163 -2.554760 -0.722559 8.953370 -1.492361 5.037778 -0.280581 -2.656022 -22.520550 -3.913409 19.027554 0.858666 -3.459475 -8.090465 9.182502 13.306657 
-2.234728 43.202686 -7.671285 -8.898745 3.994463 -10.956769 0.000000 0.000000 0.000000 4.953790 -6.499279 -4.303150 13.859912 -3.946121 0.061303 -5.564332 3.791786 0.289825 4.466732 -25.000000 0.627483 -57.680065 3.273532 -4.289832 -18.591671 -3.970926 17.035501 -12.453550 7.187060 8.015160 9.626251 20.660147 -1.101711 60.288227 -3.558541 -0.596295 4.535046 -2.379044 17.797855 9.421840 6.748285 8.367408 12.276502 -1.444600 -2.410163 -2.564504 -0.722558 8.963591 -1.482024 5.037446 -0.270608 -2.656023 -22.520548 -3.913410 19.027554 0.858666 -3.459476 -8.090466 9.182502 13.306658 
-2.236020 43.202915 -7.677853 -8.898745 3.994463 -10.956769 0.000000 0.000000 0.000000 4.963908 -6.528370 -4.297011 13.840022 -3.920048 0.028896 -5.583784 3.811353 0.348955 4.471886 -25.000000 0.614440 -57.653107 3.255531 -4.319247 -18.671129 -3.982480 17.052917 -12.463877 7.211712 7.949757 9.627771 20.685709 -1.127875 60.289745 -3.559622 -0.615738 4.555532 -2.377451 17.817144 9.449951 6.747022 8.346152 12.276502 -1.444600 -2.410163 -2.584799 -0.722659 8.964512 -1.475269 5.036016 -0.260374 -2.656022 -22.520548 -3.913409 19.027554 0.858668 -3.459476 -8.090467 9.182502 13.306658 
-2.236440 43.202984 -7.679986 -8.898745 3.994463 -10.956769 0.000000 0.000000 0.000000 4.973834 -6.538002 -4.289198 13.839862 -3.908709 0.021641 -5.593511 3.821137 0.358983 4.471469 -25.000000 0.613772 -57.644119 3.256033 -4.328724 -18.748343 -3.982612 17.024002 -12.474145 7.268068 7.936141 9.618389 20.685640 -1.128709 60.290497 -3.560162 -0.625460 4.565774 -2.376654 17.826788 9.451148 6.737545 8.344119 12.276502 -1.444598 -2.410163 -2.590608 -0.702668 8.964060 -1.467495 5.035670 -0.282015 -2.656022 -22.520548 -3.913409 19.027554 0.858666 -3.459476 -8.090466 9.182501 13.306656 
-2.237637 43.203194 -7.686071 -8.898745 3.994463 -10.956769 0.000000 0.000000 0.000000 4.993688 -6.557266 -4.263817 13.819972 -3.880775 -0.020369 -5.622689 3.850490 0.389049 4.461472 -25.000000 0.613366 -57.628513 3.248751 -4.377889 -18.809713 -3.975774 17.067406 -12.496223 7.263388 7.837992 9.610527 20.711143 -1.159152 60.292007 -3.561242 -0.644903 4.585859 -2.365304 17.846085 9.452345 6.728067 8.342087 12.276502 -1.444601 -2.410163 -2.599916 -0.702616 8.984032 -1.449218 5.018473 -0.279208 -2.656022 -22.520548 -3.913409 19.027554 0.858665 -3.459476 -8.090466 9.182501 13.306656 
-2.238007 43.203259 -7.687961 -8.898745 3.994463 -10.956769 0.000000 0.000000 0.000000 5.003713 -6.576625 -4.247095 13.809865 -3.854538 -0.053433 -5.632355 3.869998 0.409736 4.435804 -25.000000 0.602466 -57.621109 3.250231 -4.406808 -18.820480 -3.976665 17.085722 -12.478658 7.244021 7.784159 9.592994 20.730270 -1.163857 60.292763 -3.561781 -0.654624 4.586349 -2.364908 17.855829 9.452345 6.728067 8.342087 12.276502 -1.444598 -2.410163 -2.612656 -0.693231 8.984231 -1.438303 5.008654 -0.272955 -2.656022 -22.520548 -3.913409 19.027554 0.858666 -3.459475 -8.090465 9.182502 13.306658 
-2.238404 43.203331 -7.689968 -8.898745 3.994463 -10.956769 0.000000 0.000000 0.000000 4.994080 -6.596180 -4.189074 13.819319 -3.822424 -0.116514 -5.671261 3.909139 0.430226 4.389849 -25.000000 0.607896 -57.627411 3.263893 -4.484645 -18.874260 -3.942526 17.167553 -12.520364 7.199186 7.654080 9.511316 20.771503 -1.155745 60.273201 -3.552076 -0.654678 4.587328 -2.364116 17.875320 9.452345 6.728067 8.342087 12.276502 -1.444598 -2.410163 -2.612656 -0.693231 8.984231 -1.436243 5.016178 -0.290883 -2.656022 -22.520548 -3.913409 19.027554 0.858665 -3.459475 -8.090465 9.182502 13.306658 
-2.238404 43.203331 -7.689968 -8.898745 3.994463 -10.956769 0.000000 0.000000 0.000000 4.994080 -6.596180 -4.189074 13.819315 -3.820568 -0.126102 -5.680988 3.918925 0.440223 4.379855 -25.000000 0.607495 -57.628204 3.264381 -4.494366 -18.884506 -3.923732 17.171259 -12.534476 7.186746 7.607676 9.501930 20.771439 -1.156565 60.262669 -3.551558 -0.644713 4.587328 -2.364116 17.875320 9.452345 6.728067 8.342087 12.276502 -1.444598 -2.410163 -2.612656 -0.693231 8.984231 -1.436243 5.016178 -0.290883 -2.656022 -22.520548 -3.913409 19.027554 0.858665 -3.459475 -8.090465 9.182502 13.306658 
-2.238404 43.203331 -7.689968 -8.898745 3.994463 -10.956769 0.000000 0.000000 0.000000 4.994080 -6.596180 -4.189074 13.829102 -3.820415 -0.126727 -5.719896 3.958070 0.460646 4.384698 -25.000000 0.616255 -57.620800 3.256102 -4.523776 -18.935808 -3.887663 17.203785 -12.594409 7.200444 7.572888 9.479239 20.782541 -1.151056 60.251381 -3.540751 -0.625567 4.587328 -2.364116 17.875320 9.458765 6.742837 8.325015 12.276502 -1.444598 -2.410163 -2.612656 -0.693231 8.984231 -1.436243 5.016178 -0.290883 -2.656022 -22.520548 -3.913409 19.027554 0.858665 -3.459475 -8.090465 9.182502 13.306658 
-2.238404 43.203331 -7.689968 -8.898745 3.994463 -10.956769 0.000000 0.000000 0.000000 4.994080 -6.596180 -4.189074 13.829102 -3.820415 -0.126727 -5.739412 3.967919 0.460185 4.389949 -25.000000 0.630356 -57.613396 3.257575 -4.552695 -18.946314 -3.878716 17.214821 -12.615429 7.206913 7.570817 9.479239 20.782541 -1.151056 60.251381 -3.540751 -0.625567 4.587328 -2.364116 17.875320 9.454340 6.765623 8.310038 12.276502 -1.444598 -2.410163 -2.612656 -0.693231 8.984231 -1.436243 5.016178 -0.290883 -2.656022 -22.520548 -3.913409 19.027554 0.858665 -3.459475 -8.090465 9.182502 13.306658 
